<?xml version="1.0" encoding="utf-8"?>
<!-- Generator: Adobe Illustrator 13.0.1, SVG Export Plug-In . SVG Version: 6.00 Build 14948)  -->
<!DOCTYPE svg PUBLIC "-//W3C//DTD SVG 1.1//EN" "http://www.w3.org/Graphics/SVG/1.1/DTD/svg11.dtd">
<svg version="1.1" id="圖層_2" xmlns="http://www.w3.org/2000/svg" xmlns:xlink="http://www.w3.org/1999/xlink" x="0px" y="0px"
	 width="198.075px" height="67.484px" viewBox="0 0 198.075 67.484" enable-background="new 0 0 198.075 67.484"
	 xml:space="preserve">
<path fill="#010101" d="M75.165,36.096h1.369v5.062c0,1.232,0.066,2.086,0.197,2.553c0.196,0.664,0.571,1.188,1.123,1.572
	c0.551,0.386,1.209,0.578,1.976,0.578c0.766,0,1.411-0.187,1.947-0.563c0.531-0.377,0.901-0.872,1.103-1.479
	c0.136-0.421,0.205-1.304,0.205-2.661v-5.062h1.397v5.32c0,1.493-0.17,2.622-0.513,3.379c-0.342,0.759-0.857,1.353-1.545,1.778
	c-0.688,0.427-1.551,0.642-2.588,0.642c-1.039,0-1.905-0.215-2.599-0.642c-0.695-0.426-1.215-1.029-1.559-1.795
	c-0.341-0.768-0.513-1.92-0.513-3.461V36.096z"/>
<polygon fill="#010101" points="87.719,32.068 89.091,32.068 89.091,36.096 91.263,36.096 91.263,37.3 89.091,37.3 89.091,46.937 
	87.719,46.937 87.719,37.3 85.851,37.3 85.851,36.096 87.719,36.096 "/>
<path fill="#010101" d="M97.358,35.815c1.642,0,3.002,0.604,4.079,1.815c0.979,1.1,1.473,2.408,1.473,3.915
	c0,1.516-0.518,2.839-1.559,3.974c-1.035,1.131-2.365,1.696-3.993,1.696c-1.633,0-2.97-0.565-4.005-1.696
	c-1.036-1.135-1.557-2.458-1.557-3.974c0-1.501,0.492-2.804,1.474-3.905C94.347,36.422,95.712,35.815,97.358,35.815 M97.353,37.179
	c-1.139,0-2.121,0.429-2.937,1.285c-0.818,0.859-1.226,1.895-1.226,3.11c0,0.785,0.184,1.517,0.561,2.194
	c0.369,0.676,0.875,1.2,1.51,1.566c0.638,0.371,1.335,0.555,2.092,0.555c0.76,0,1.458-0.184,2.092-0.555
	c0.634-0.366,1.139-0.891,1.514-1.566c0.37-0.678,0.56-1.409,0.56-2.194c0-1.216-0.411-2.251-1.232-3.11
	C99.466,37.608,98.484,37.179,97.353,37.179"/>
<path fill="#010101" d="M104.431,36.096h1.372v1.872c0.474-0.692,0.966-1.194,1.468-1.516c0.696-0.426,1.424-0.638,2.187-0.638
	c0.515,0,1.007,0.104,1.468,0.31c0.467,0.204,0.844,0.48,1.141,0.82c0.293,0.342,0.547,0.834,0.764,1.472
	c0.454-0.851,1.021-1.498,1.708-1.94c0.684-0.441,1.419-0.661,2.208-0.661c0.734,0,1.384,0.19,1.947,0.567
	c0.563,0.379,0.98,0.909,1.256,1.586c0.27,0.68,0.409,1.693,0.409,3.051v5.918h-1.401v-5.918c0-1.164-0.081-1.965-0.24-2.398
	c-0.166-0.434-0.443-0.785-0.838-1.051s-0.863-0.401-1.407-0.401c-0.667,0-1.272,0.201-1.819,0.598
	c-0.553,0.402-0.954,0.931-1.207,1.597c-0.255,0.665-0.382,1.772-0.382,3.328v4.246h-1.369v-5.549c0-1.312-0.081-2.2-0.24-2.67
	c-0.159-0.469-0.438-0.84-0.834-1.123c-0.397-0.282-0.875-0.427-1.423-0.427c-0.632,0-1.225,0.197-1.774,0.585
	c-0.552,0.391-0.959,0.912-1.224,1.57c-0.267,0.655-0.396,1.664-0.396,3.019v4.595h-1.372V36.096z"/>
<path fill="#010101" d="M132.855,36.096v10.841h-1.35v-1.863c-0.58,0.711-1.22,1.245-1.937,1.605
	c-0.716,0.356-1.498,0.537-2.345,0.537c-1.506,0-2.795-0.558-3.86-1.672c-1.067-1.111-1.601-2.466-1.601-4.061
	c0-1.559,0.537-2.895,1.613-4.004s2.372-1.665,3.887-1.665c0.877,0,1.668,0.19,2.373,0.567c0.712,0.38,1.332,0.946,1.869,1.704
	v-1.99H132.855z M127.375,37.16c-0.762,0-1.463,0.193-2.109,0.573c-0.644,0.382-1.158,0.918-1.54,1.605
	c-0.382,0.691-0.573,1.422-0.573,2.191c0,0.764,0.193,1.492,0.577,2.19c0.384,0.696,0.906,1.239,1.548,1.626
	c0.65,0.388,1.348,0.582,2.09,0.582c0.75,0,1.462-0.191,2.132-0.577c0.672-0.385,1.189-0.905,1.55-1.56
	c0.36-0.66,0.543-1.399,0.543-2.22c0-1.256-0.404-2.307-1.218-3.149C129.562,37.581,128.563,37.16,127.375,37.16"/>
<polygon fill="#010101" points="136.131,32.068 137.499,32.068 137.499,36.096 139.671,36.096 139.671,37.3 137.499,37.3 
	137.499,46.937 136.131,46.937 136.131,37.3 134.257,37.3 134.257,36.096 136.131,36.096 "/>
<path fill="#010101" d="M141.201,31.627c0.313,0,0.578,0.114,0.798,0.34c0.223,0.227,0.333,0.498,0.333,0.818
	c0,0.311-0.11,0.582-0.333,0.807c-0.22,0.226-0.485,0.338-0.798,0.338c-0.307,0-0.568-0.112-0.789-0.338
	c-0.221-0.225-0.33-0.497-0.33-0.807c0-0.32,0.109-0.591,0.33-0.818C140.632,31.741,140.894,31.627,141.201,31.627 M140.52,36.096
	h1.37v10.841h-1.37V36.096z"/>
<path fill="#010101" d="M155.861,36.096h1.37v1.941c0.551-0.744,1.156-1.301,1.819-1.669c0.668-0.369,1.392-0.554,2.172-0.554
	c0.796,0,1.506,0.208,2.121,0.618c0.617,0.412,1.073,0.968,1.367,1.666c0.293,0.696,0.438,1.782,0.438,3.256v5.582h-1.368v-5.172
	c0-1.25-0.051-2.084-0.153-2.504c-0.158-0.716-0.463-1.257-0.913-1.617c-0.452-0.362-1.036-0.543-1.765-0.543
	c-0.826,0-1.57,0.278-2.223,0.839c-0.658,0.557-1.09,1.248-1.301,2.071c-0.133,0.537-0.194,1.521-0.194,2.951v3.975h-1.37V36.096z"
	/>
<path fill="#AE0F69" d="M74.57,49.684l-0.804-0.031l-1.396-3.138L61.46,15.358h-5.546l-3.991,10.979h7.108l1.923,5.135H50.32
	l-8.173,23.207L30.45,34.054l12.504-22.056h23.348V7.844H40.599L25.735,34.054l14.863,26.207H69.98l0.016-0.021h97.625l0.094-10.556
	H74.57z M47.268,56.105l5.939-15.221h11.05l5.321,13.946l-1.269,1.274H47.268z"/>
<path fill="#FFFFFF" d="M99.679,57.281l0.613-0.376c0.433,0.81,0.93,1.215,1.496,1.215c0.244,0,0.47-0.058,0.684-0.173
	c0.212-0.115,0.375-0.27,0.485-0.463c0.111-0.192,0.167-0.398,0.167-0.613c0-0.247-0.082-0.488-0.245-0.725
	c-0.226-0.326-0.638-0.721-1.237-1.18c-0.603-0.463-0.977-0.799-1.124-1.005c-0.254-0.347-0.382-0.72-0.382-1.124
	c0-0.319,0.073-0.611,0.226-0.875c0.149-0.263,0.363-0.47,0.636-0.621c0.272-0.152,0.569-0.228,0.891-0.228
	c0.339,0,0.658,0.085,0.954,0.257c0.295,0.172,0.609,0.486,0.939,0.947l-0.589,0.455c-0.271-0.367-0.502-0.609-0.694-0.725
	c-0.19-0.117-0.399-0.174-0.625-0.174c-0.292,0-0.53,0.088-0.716,0.269c-0.185,0.181-0.276,0.4-0.276,0.665
	c0,0.159,0.033,0.315,0.097,0.464c0.067,0.15,0.187,0.313,0.36,0.489c0.095,0.094,0.405,0.339,0.933,0.735
	c0.624,0.47,1.053,0.887,1.286,1.254c0.231,0.366,0.349,0.734,0.349,1.104c0,0.533-0.199,0.996-0.598,1.389
	c-0.396,0.395-0.881,0.591-1.449,0.591c-0.438,0-0.837-0.12-1.193-0.358S99.98,57.839,99.679,57.281"/>
<path fill="#FFFFFF" d="M105.319,51.114h0.687v3.073c0.277-0.373,0.584-0.652,0.917-0.838c0.335-0.186,0.696-0.276,1.085-0.276
	c0.399,0,0.755,0.104,1.063,0.31s0.537,0.483,0.684,0.832c0.147,0.348,0.222,0.894,0.222,1.637v2.798h-0.688v-2.594
	c0-0.626-0.024-1.044-0.072-1.255c-0.086-0.359-0.241-0.629-0.465-0.812c-0.225-0.181-0.518-0.271-0.882-0.271
	c-0.415,0-0.787,0.14-1.116,0.419c-0.329,0.28-0.546,0.627-0.65,1.039c-0.065,0.268-0.098,0.761-0.098,1.48v1.993h-0.687V51.114z"/>
<path fill="#FFFFFF" d="M113.976,53.073c0.822,0,1.504,0.303,2.046,0.909c0.489,0.553,0.736,1.208,0.736,1.964
	c0,0.758-0.259,1.423-0.778,1.991c-0.521,0.566-1.188,0.852-2.004,0.852c-0.82,0-1.489-0.285-2.009-0.852
	c-0.521-0.568-0.778-1.233-0.778-1.991c0-0.753,0.245-1.406,0.736-1.958C112.467,53.376,113.15,53.073,113.976,53.073
	 M113.973,53.757c-0.571,0-1.063,0.215-1.473,0.645s-0.615,0.949-0.615,1.559c0,0.394,0.093,0.76,0.28,1.099
	c0.188,0.34,0.44,0.604,0.76,0.788c0.317,0.184,0.667,0.277,1.048,0.277s0.73-0.094,1.049-0.277
	c0.319-0.185,0.571-0.448,0.759-0.788c0.188-0.339,0.28-0.705,0.28-1.099c0-0.609-0.206-1.129-0.617-1.559
	C115.031,53.972,114.541,53.757,113.973,53.757"/>
<polygon fill="#FFFFFF" points="117.308,53.212 118.015,53.212 119.652,57.159 121.355,53.212 121.48,53.212 123.195,57.159 
	124.862,53.212 125.578,53.212 123.257,58.649 123.13,58.649 121.422,54.756 119.717,58.649 119.589,58.649 "/>
<path fill="#FFFFFF" d="M131.248,54.769c0,0.379-0.352,0.614-0.604,0.614c-0.281,0-0.603-0.245-0.603-0.614
	c0-0.398,0.271-0.613,0.603-0.613C130.866,54.156,131.248,54.328,131.248,54.769"/>
<polygon fill="#FFFFFF" points="135.831,52.018 135.831,51.299 139.786,51.299 139.786,52.018 138.175,52.018 138.175,58.649 
	137.438,58.649 137.438,52.018 "/>
<path fill="#FFFFFF" d="M146.034,53.212v5.437h-0.679v-0.935c-0.288,0.356-0.609,0.625-0.969,0.805
	c-0.357,0.18-0.75,0.27-1.175,0.27c-0.755,0-1.401-0.279-1.936-0.837c-0.537-0.558-0.804-1.237-0.804-2.036
	c0-0.783,0.271-1.453,0.811-2.01c0.541-0.555,1.189-0.833,1.947-0.833c0.44,0,0.836,0.095,1.191,0.285
	c0.354,0.188,0.667,0.474,0.934,0.854v-0.999H146.034z M143.289,53.748c-0.384,0-0.736,0.095-1.061,0.286
	c-0.323,0.191-0.58,0.459-0.771,0.805c-0.191,0.347-0.287,0.714-0.287,1.098c0,0.383,0.096,0.75,0.288,1.1
	c0.193,0.35,0.452,0.621,0.778,0.815c0.325,0.195,0.674,0.292,1.046,0.292c0.377,0,0.732-0.097,1.069-0.289
	c0.336-0.192,0.595-0.455,0.777-0.784c0.181-0.329,0.271-0.7,0.271-1.112c0-0.629-0.203-1.156-0.611-1.579
	C144.382,53.958,143.882,53.748,143.289,53.748"/>
<path fill="#FFFFFF" d="M147.816,50.973c0.157,0,0.29,0.057,0.401,0.171c0.11,0.113,0.167,0.249,0.167,0.409
	c0,0.156-0.057,0.291-0.167,0.404c-0.111,0.113-0.244,0.171-0.401,0.171c-0.152,0-0.285-0.058-0.395-0.171
	c-0.111-0.113-0.168-0.248-0.168-0.404c0-0.16,0.057-0.296,0.168-0.409C147.531,51.03,147.664,50.973,147.816,50.973
	 M147.476,53.212h0.688v5.437h-0.688V53.212z"/>
<path fill="#FFFFFF" d="M149.601,53.212h0.688v0.999c0.271-0.38,0.582-0.665,0.937-0.854c0.353-0.19,0.746-0.285,1.181-0.285
	c0.758,0,1.406,0.278,1.945,0.833c0.54,0.557,0.811,1.227,0.811,2.01c0,0.799-0.269,1.479-0.803,2.036
	c-0.533,0.558-1.179,0.837-1.934,0.837c-0.426,0-0.815-0.09-1.172-0.27s-0.68-0.448-0.965-0.805v2.924h-0.688V53.212z
	 M152.348,53.748c-0.593,0-1.094,0.21-1.5,0.631c-0.406,0.423-0.609,0.95-0.609,1.579c0,0.412,0.09,0.783,0.271,1.112
	c0.183,0.329,0.442,0.592,0.779,0.784c0.338,0.192,0.694,0.289,1.07,0.289c0.367,0,0.716-0.097,1.04-0.292
	c0.326-0.194,0.584-0.466,0.777-0.815c0.191-0.35,0.288-0.717,0.288-1.1c0-0.384-0.096-0.751-0.286-1.098
	c-0.191-0.346-0.448-0.613-0.772-0.805C153.083,53.843,152.73,53.748,152.348,53.748"/>
<path fill="#FFFFFF" d="M160.942,56.844l0.58,0.311c-0.19,0.38-0.41,0.687-0.659,0.92s-0.527,0.409-0.84,0.53
	c-0.311,0.123-0.662,0.184-1.056,0.184c-0.871,0-1.553-0.29-2.044-0.873c-0.49-0.58-0.736-1.237-0.736-1.97
	c0-0.689,0.208-1.305,0.623-1.845c0.527-0.686,1.233-1.028,2.117-1.028c0.91,0,1.638,0.351,2.182,1.054
	c0.386,0.497,0.583,1.115,0.59,1.859h-4.806c0.014,0.631,0.211,1.148,0.595,1.553c0.383,0.404,0.855,0.605,1.421,0.605
	c0.272,0,0.536-0.048,0.793-0.145c0.258-0.096,0.476-0.224,0.656-0.384C160.539,57.456,160.732,57.198,160.942,56.844
	 M160.942,55.38c-0.091-0.372-0.224-0.67-0.399-0.896c-0.177-0.222-0.407-0.401-0.695-0.538c-0.289-0.137-0.592-0.205-0.91-0.205
	c-0.523,0-0.975,0.172-1.352,0.516c-0.275,0.249-0.482,0.624-0.623,1.123H160.942z"/>
<path fill="#FFFFFF" d="M163.217,50.973c0.156,0,0.289,0.057,0.399,0.171c0.112,0.113,0.167,0.249,0.167,0.409
	c0,0.156-0.055,0.291-0.167,0.404c-0.11,0.113-0.243,0.171-0.399,0.171c-0.154,0-0.285-0.058-0.396-0.171
	c-0.11-0.113-0.166-0.248-0.166-0.404c0-0.16,0.056-0.296,0.166-0.409C162.932,51.03,163.063,50.973,163.217,50.973 M162.875,53.212
	h0.687v5.437h-0.687V53.212z"/>
<path fill="#231916" d="M154.345,41.854c-0.037-0.417-0.037-0.835-0.004-1.255c-0.535-0.038-0.504-0.17-1.107-0.217
	c-0.047-0.244-0.113-0.48-0.196-0.707c0.496-0.352,0.411-0.453,0.856-0.766c-0.234-0.343-0.439-0.707-0.617-1.085
	c-0.492,0.241-0.551,0.124-1.106,0.394c-0.151-0.176-0.315-0.34-0.5-0.492c0.267-0.569,0.153-0.627,0.389-1.135
	c-0.373-0.179-0.729-0.389-1.069-0.626c-0.311,0.468-0.421,0.401-0.777,0.925c-0.213-0.071-0.43-0.131-0.656-0.175
	c-0.052-0.636-0.184-0.636-0.225-1.201c-0.412,0.035-0.823,0.035-1.229,0.005c-0.045,0.565-0.176,0.565-0.222,1.199
	c-0.229,0.043-0.448,0.102-0.659,0.177c-0.354-0.521-0.463-0.455-0.781-0.923c-0.339,0.239-0.697,0.447-1.066,0.63
	c0.24,0.505,0.123,0.566,0.39,1.136c-0.176,0.152-0.344,0.315-0.495,0.494c-0.557-0.269-0.611-0.149-1.107-0.391
	c-0.174,0.377-0.383,0.74-0.615,1.087c0.448,0.31,0.365,0.411,0.861,0.76c-0.08,0.229-0.149,0.462-0.197,0.709
	c-0.599,0.048-0.57,0.179-1.104,0.224c0.032,0.418,0.032,0.834,0.005,1.252c0.519,0.039,0.478,0.171,1.066,0.216
	c0.04,0.258,0.104,0.508,0.185,0.749c-0.48,0.337-0.38,0.427-0.806,0.725c0.232,0.345,0.438,0.709,0.613,1.083
	c0.464-0.224,0.479-0.083,0.995-0.337c0.169,0.207,0.353,0.397,0.551,0.573c-0.247,0.524-0.107,0.532-0.324,1.001
	c0.368,0.178,0.729,0.387,1.064,0.625c0.284-0.423,0.36-0.301,0.681-0.773c0.245,0.091,0.506,0.166,0.771,0.213
	c0.047,0.573,0.169,0.5,0.211,1.011c0.408-0.035,0.821-0.036,1.229-0.001c0.042-0.511,0.163-0.441,0.208-1.015
	c0.268-0.049,0.525-0.121,0.774-0.212c0.319,0.471,0.394,0.348,0.679,0.77c0.34-0.238,0.693-0.447,1.064-0.627
	c-0.219-0.47-0.076-0.478-0.324-1.003c0.195-0.176,0.376-0.367,0.543-0.573c0.521,0.25,0.533,0.109,0.996,0.333
	c0.176-0.376,0.38-0.739,0.612-1.086c-0.429-0.298-0.327-0.387-0.81-0.724c0.082-0.24,0.143-0.489,0.185-0.746
	C153.862,42.024,153.821,41.897,154.345,41.854 M148.727,43.141c-0.986,0-1.79-0.811-1.791-1.818c0-1.004,0.799-1.822,1.786-1.822
	c0.99-0.003,1.786,0.81,1.79,1.818C150.515,42.322,149.716,43.137,148.727,43.141"/>
<path fill="#AE0F69" d="M105.169,30.122H87.543l10.356-12.488c0.632-0.76,1.095-1.448,1.396-2.063c0.3-0.616,0.449-1.19,0.449-1.726
	c0-0.824-0.255-1.496-0.765-2.014c-0.509-0.519-1.18-0.779-2.01-0.779c-0.988,0-1.748,0.32-2.278,0.963
	c-0.53,0.642-0.795,1.573-0.795,2.792v0.29h-5.549v-0.161c0-2.666,0.764-4.763,2.294-6.292c1.53-1.53,3.618-2.296,6.267-2.296
	c2.585,0,4.646,0.68,6.179,2.039c1.534,1.359,2.303,3.168,2.303,5.425c0,1.103-0.242,2.175-0.727,3.219
	c-0.483,1.042-1.281,2.186-2.396,3.427l-4.163,4.671h7.065V30.122z"/>
<path fill="#AE0F69" d="M125.93,18.774c0,3.724-0.774,6.65-2.325,8.78c-1.551,2.131-3.68,3.195-6.393,3.195
	c-2.712,0-4.847-1.083-6.408-3.25s-2.341-5.15-2.341-8.949c0-3.788,0.779-6.763,2.341-8.925c1.562-2.161,3.696-3.243,6.408-3.243
	c2.754,0,4.896,1.084,6.425,3.251C125.166,11.799,125.93,14.847,125.93,18.774 M114.281,18.549c0,2.568,0.234,4.443,0.701,5.625
	c0.467,1.183,1.211,1.774,2.23,1.774c0.999,0,1.731-0.595,2.198-1.782c0.469-1.188,0.703-3.061,0.703-5.618
	c0-2.536-0.234-4.404-0.703-5.603c-0.467-1.198-1.199-1.798-2.198-1.798c-1.029,0-1.775,0.586-2.238,1.758
	C114.511,14.078,114.281,15.959,114.281,18.549"/>
<polygon fill="#AE0F69" points="135.044,30.122 135.044,12.177 130.093,12.177 132.804,6.847 140.783,6.847 140.783,30.122 "/>
<path fill="#AE0F69" d="M157.289,15.129c0.367-0.116,0.75-0.205,1.152-0.264c0.398-0.058,0.818-0.089,1.26-0.089
	c1.955,0,3.573,0.699,4.856,2.095c1.281,1.396,1.923,3.17,1.923,5.321c0,2.589-0.801,4.664-2.404,6.22
	c-1.604,1.558-3.749,2.336-6.439,2.336c-2.682,0-4.809-0.77-6.386-2.311c-1.577-1.542-2.364-3.612-2.364-6.212
	c0-1.338,0.265-2.713,0.796-4.125c0.53-1.413,1.642-3.467,3.334-6.164l3.232-5.088h6.432L157.289,15.129z M157.573,18.885
	c-1.073,0-1.921,0.324-2.547,0.973c-0.624,0.647-0.937,1.526-0.937,2.64c0,1.103,0.313,1.974,0.937,2.617
	c0.626,0.642,1.474,0.963,2.547,0.963c1.071,0,1.92-0.321,2.546-0.963c0.625-0.643,0.938-1.514,0.938-2.617
	c0-1.113-0.313-1.993-0.938-2.64C159.493,19.209,158.644,18.885,157.573,18.885"/>
</svg>
