<svg id="bd1c1dd8-2635-426f-bc3d-a22c3a9ad046" data-name="圖層 1" xmlns="http://www.w3.org/2000/svg" xmlns:xlink="http://www.w3.org/1999/xlink" viewBox="0 0 370 300"><defs><radialGradient id="bf5bc47a-aeee-4b11-a1e6-06ea6d89a0e8" cx="-3.51" cy="118.09" fy="108.9195522643912" r="18.67" gradientTransform="translate(295.08 -39.06) rotate(5.36)" gradientUnits="userSpaceOnUse"><stop offset="0" stop-color="#ffb1a4"/><stop offset="0.09" stop-color="#ff6f67"/><stop offset="0.22" stop-color="red"/><stop offset="0.75" stop-color="#a40c21"/><stop offset="0.77" stop-color="#a00d23"/></radialGradient></defs><path d="M132.19,36.17c-25.12,0-45.8,24-48.63,54.88h97.26C178,60.16,157.3,36.17,132.19,36.17ZM146.4,82.36a16.18,16.18,0,0,1-15-10.13,16.18,16.18,0,1,1,0-12.12,16.18,16.18,0,1,1,15,22.25Z" style="fill:#90e200"/><path d="M121.53,61.83c-3.49,0-6.32,3.27-6.32,7.31s2.83,7.3,6.32,7.3,6.32-3.27,6.32-7.3S125,61.83,121.53,61.83Z" style="fill:#90e200"/><path d="M141.66,61.83c-3.48,0-6.31,3.27-6.31,7.31s2.83,7.3,6.31,7.3,6.32-3.27,6.32-7.3S145.15,61.83,141.66,61.83Z" style="fill:#90e200"/><path d="M132,0a7.67,7.67,0,1,0,7.67,7.67A7.66,7.66,0,0,0,132,0Z" style="fill:#f8b62d"/><rect x="129.94" y="15.65" width="3.44" height="26.29" style="fill:#90e200"/><path d="M70.27,197.27H196.4V96.21H70.27ZM99.38,114.4a5.26,5.26,0,0,1,10.51,0V135a5.26,5.26,0,0,1-10.51,0Zm-18.6,0a5.26,5.26,0,0,1,10.51,0V135a5.26,5.26,0,0,1-10.51,0Z" style="fill:#90e200"/><path d="M201.35,103.42v43.8a23.71,23.71,0,0,0,0-43.8Z" style="fill:#90e200"/><path d="M52,125.32a23.72,23.72,0,0,0,14.63,21.9v-43.8A23.7,23.7,0,0,0,52,125.32Z" style="fill:#90e200"/><polygon points="208.13 145.33 238.66 175.92 245.52 169.06 214.99 138.46 208.13 145.33" style="fill:#90e200"/><circle cx="9.7" cy="181.91" r="9.7" transform="translate(-172.42 186.27) rotate(-88.32)" style="fill:#90e200"/><rect x="11.18" y="152.54" width="49.72" height="9.7" transform="translate(-100.72 71.56) rotate(-44.99)" style="fill:#90e200"/><rect x="29.58" y="183.06" width="9.7" height="49.72" transform="translate(-136.93 85.24) rotate(-45)" style="fill:#90e200"/><path d="M60.17,217.13a30.32,30.32,0,0,0-6.52,59.93,25.59,25.59,0,0,1-5.8-7.86c-5.61-11.71-1.63-25.29,8.89-30.32s23.59.38,29.2,12.09a26,26,0,0,1,2.34,7.85,30.35,30.35,0,0,0-28.11-41.69Z" style="fill:#90e200"/><path d="M246.79,164.09a9.7,9.7,0,1,0,11.36,7.7A9.7,9.7,0,0,0,246.79,164.09Z" style="fill:#90e200"/><g id="b2c1f309-1f92-40ee-89b2-82b333cfb262" data-name="hand"><rect x="240.2" y="137.02" width="49.72" height="9.7" transform="translate(19.32 315.07) rotate(-63.33)" style="fill:#90e200"/><path d="M302.65,84.12c-.24,13-9.89,23.33-21.55,23.11s-20.92-10.92-20.67-23.91a26,26,0,0,1,1.43-8.06A30.32,30.32,0,1,0,301,74.49,25.44,25.44,0,0,1,302.65,84.12Z" style="fill:#90e200"/></g><path d="M132.32,220.1a46.46,46.46,0,0,0,36.93-18.23H95.38A46.48,46.48,0,0,0,132.32,220.1Z" style="fill:#90e200"/><path d="M104.17,250.12a4.68,4.68,0,0,0,9.36,0v-27.3a32.38,32.38,0,0,1-9.36-6.66Z" style="fill:#90e200"/><path d="M108.85,261a4.67,4.67,0,0,0-4.68,4.68V293a32.65,32.65,0,0,1,9.36,6.66v-34A4.68,4.68,0,0,0,108.85,261Z" style="fill:#90e200"/><path d="M111.1,257h-4.32a1.35,1.35,0,1,0,0,2.7h4.32a1.35,1.35,0,0,0,0-2.7Z" style="fill:#90e200"/><path d="M96.61,293.05a20,20,0,0,0-15.87,7.83h31.74A20,20,0,0,0,96.61,293.05Z" style="fill:#90e200"/><path d="M148.79,250.12a4.68,4.68,0,0,0,9.36,0v-34a32.65,32.65,0,0,1-9.36,6.66Z" style="fill:#90e200"/><path d="M153.47,261a4.67,4.67,0,0,0-4.68,4.68v34a32.38,32.38,0,0,1,9.36-6.66v-27.3A4.68,4.68,0,0,0,153.47,261Z" style="fill:#90e200"/><path d="M155.54,257h-4.32a1.35,1.35,0,1,0,0,2.7h4.32a1.35,1.35,0,0,0,0-2.7Z" style="fill:#90e200"/><path d="M165.7,293.05a20,20,0,0,0-15.87,7.83h31.74A20,20,0,0,0,165.7,293.05Z" style="fill:#90e200"/><circle id="bbfe8edd-2a89-4dd5-a680-162b7ba074a6" data-name="ball" cx="280.56" cy="78.18" r="18.67" style="fill:url(#bf5bc47a-aeee-4b11-a1e6-06ea6d89a0e8)"/><path d="M147.19,120.56l1.83-1.84,3,2.72-1.19,1.23h-7.37a30.44,30.44,0,0,0,.85,5.29,21.9,21.9,0,0,0,2.3-4.8l4.83,2.08a25.34,25.34,0,0,1-5.2,7.71c.77,1.63,1.37,2.44,1.77,2.44s.72-1.29,1.29-3.88l2.11.76a8.81,8.81,0,0,0-.55,2.88,4.79,4.79,0,0,0,1.07,3.36,5.81,5.81,0,0,1-1.44,2.36,2.43,2.43,0,0,1-2.11.88c-1.92,0-3.88-1.8-5.9-5.41a46.06,46.06,0,0,1-6.82,4.37l-1.78-1.8a48.51,48.51,0,0,0,6.92-6.3,37.43,37.43,0,0,1-2.05-9.94h-5.45v3.48a33.49,33.49,0,0,0,4.22-1.52l1.1,2.29a32.36,32.36,0,0,1-5.32,3.27v7.56q0,3.94-3.07,3.94h-2.86q0-2.9-3.74-3l.13-2c1.3.06,2.58.14,3.82.24.49,0,.74-.53.74-1.59v-2.75q-2,.85-4.2,1.71l-1.65-5.17c1.63-.37,3.58-.86,5.85-1.5v-5H122.9l-.52-2.11h5.91v-2.42c-1.56.16-3.17.3-4.84.4l-.64-2.3a37.29,37.29,0,0,0,11.62-3.54L138.2,116a37,37,0,0,1-4.93,1.34v3.25h5.32v-7.93l4.77.59v7.34Zm-1.44-7.71a22.43,22.43,0,0,1,4.56,3.12l-3,3.09a21.05,21.05,0,0,0-3.3-4.59Z" style="fill:#033bdb"/><path d="M155.85,116.52l4.74.52v1.35H163v-2.15h-8.75l-.58-2.32h24.84l1.77-1.62,2.91,2.57-1.31,1.37h-7.77v2.15h2.11l2.17-2,4.1,3.15-1.17,1.34v6.64l-.55.06,2.88,2.57-1.41,1.41H178a14.77,14.77,0,0,1-2.87,4.16,72.29,72.29,0,0,1,7.12,2.54l-3.51,3.85a72,72,0,0,0-7.44-3.52q-5.92,3.26-16,3.25l-.82-2.3a35.57,35.57,0,0,0,11.68-2.87c-1-.33-2-.65-3.05-1q-.7.95-1.41,1.83l-4.77-1.5a33.83,33.83,0,0,0,3.27-4.49h-5.78l-.58-2.45h7.77c.4-.77.8-1.57,1.19-2.38h-2.23v1.07l-4.74.64Zm4.74,7.83H163v-3.58h-2.41Zm3.51,2.39,4,.85c-.28.53-.55,1-.79,1.53h11.47l1.62-1.5-3.89.52v-1.4Zm1.84,4.83c-.35.61-.71,1.2-1.1,1.77,1.71.27,3.39.59,5,1a12.08,12.08,0,0,0,2.32-2.75Zm1.38-15.33v2.15h2.44v-2.15Zm0,4.53v3.58h2.44v-3.58Zm6.79,0v3.58h2.44v-3.58Z" style="fill:#033bdb"/><path d="M147.31,151.75,149,150l3,2.69L150.55,154H147v21.42q0,4.06-3.62,4.06h-3.33c0-2-.94-3.1-2.81-3.18l.09-2,3.91.28c.51,0,.77-.56.77-1.68V154h-5l1.14,1-1.35,1.29H123.18L122.6,154h4.61v-3.82l4.72.58V154h1.8l1.62-1.52,1,.88-.43-1.65Zm-14.56,6.82,1.59-1.5,2.79,2.51-1.32,1.26H124l-.61-2.27Zm0,4.47,1.59-1.56,2.79,2.51-1.32,1.28H124.06l-.58-2.23Zm-8.84,3.3,4.22.52v1.22h3.61l1.9-1.65,3.67,2.85-1.1,1.2v8l-4.1.52v-1.31h-4v1.1l-4.22.52Zm4.22,9h4v-4.8h-4Z" style="fill:#033bdb"/><path d="M161.23,167.75l-.77.46-1.13-1v12.08l-4.46.55V150.31l4.46.49v.77h3.09l2.05-1.68,3.92,3-1.23,1.29v7.46l-4.43.55V161h-3.4v5.38a9.13,9.13,0,0,0,2.88-4.07l3.79.89a6,6,0,0,1-1.87,2.54l.89.09v.12h6.33l.37-.24-1-1.22h-4l-.49-2H170l.67-.49-1.71.21V150.16l4.46.49v1h3.73l1.78-1.71,4.56,2.87L182.12,154v22.18q0,3.24-3.24,3.24h-2.82a2.67,2.67,0,0,0-.58-2,3,3,0,0,1-.73.09H170c-1.16-.15-1.75-1.09-1.75-2.85v-3.15h-1.07v.8q0,3.63-6.33,5.84l-1.16-1.44c2.3-1.18,3.5-2.67,3.58-4.46l-2.08.27Zm-1.9-12.6h3.4v-1.32h-3.4Zm0,3.51h3.4v-1.19h-3.4Zm11.78,10.8v-1.41H165v1.41Zm1,2.54v1.84c0,.48.07.73.21.73h1.38c.34,0,.56-.25.64-.73l.31-1.35,1.62.34c0,.32,0,.6,0,.82a2.59,2.59,0,0,0,.27,1.2.94.94,0,0,0,.89-1v-7.93L175.82,169a5.88,5.88,0,0,1-.8-.43v3.09Zm5.29-7.16V161h-4v.67l-1.07.12,2.48,1.5-1.13.83A12.15,12.15,0,0,0,177.38,164.84Zm0-9.69V154h-4v1.2Zm0,3.51v-1.19h-4v1.19Z" style="fill:#033bdb"/></svg>