<?xml version="1.0" encoding="utf-8"?>
<!-- Generator: Adobe Illustrator 13.0.1, SVG Export Plug-In . SVG Version: 6.00 Build 14948)  -->
<!DOCTYPE svg PUBLIC "-//W3C//DTD SVG 1.1//EN" "http://www.w3.org/Graphics/SVG/1.1/DTD/svg11.dtd">
<svg version="1.1" id="圖層_2" xmlns="http://www.w3.org/2000/svg" xmlns:xlink="http://www.w3.org/1999/xlink" x="0px" y="0px"
	 width="198.014px" height="67.484px" viewBox="0 0 198.014 67.484" enable-background="new 0 0 198.014 67.484"
	 xml:space="preserve">
<rect x="27.375" y="6.807" fill="#F29600" width="143.272" height="52.204"/>
<polyline fill="none" stroke="#FFFFFF" stroke-width="0.351" stroke-miterlimit="10" points="126.14,25.698 117.357,25.698 
	115.637,23.035 112.541,24.27 113.223,17.844 107.787,24.195 106.464,21.346 103.373,22.261 104.168,14.344 99.341,21.259 
	97.407,19.052 95.282,21.435 92.58,15.309 92.205,21.435 87.75,20.5 "/>
<polygon fill="#FFFFFF" points="55.049,25.969 39.737,25.969 39.737,30.802 44.454,30.802 44.454,48.251 50.249,48.251 
	50.249,30.802 55.049,30.802 "/>
<rect x="84.023" y="25.969" fill="#FFFFFF" width="5.796" height="22.282"/>
<path fill="#FFFFFF" d="M109.128,37.543c1.175-1.175,1.765-2.748,1.765-4.716c0-1.72-0.514-3.217-1.535-4.489
	c-1.263-1.579-3.212-2.367-5.843-2.367h-9.011v22.281h5.794v-8.553l5.533,8.553h7.198l-7.004-9.141
	C107.343,38.817,108.377,38.294,109.128,37.543 M104.015,35.162c-0.533,0.51-1.413,0.766-2.637,0.766h-1.08v-5.55h1.08
	c1.211,0,2.093,0.254,2.637,0.765c0.581,0.542,0.871,1.21,0.871,2.001C104.886,33.937,104.596,34.608,104.015,35.162"/>
<path fill="#FFFFFF" d="M156.203,37.267c-0.872-1.101-2.334-1.948-4.383-2.549c-1.634-0.48-2.617-0.817-2.941-1.016
	c-0.732-0.425-1.098-0.935-1.098-1.523c0-0.6,0.28-1.081,0.837-1.441c0.488-0.317,1.047-0.476,1.668-0.476
	c1.287,0,2.564,0.496,3.827,1.485l2.32-4.505c-2.309-1.208-4.663-1.812-7.067-1.812c-2.395,0-4.311,0.799-5.748,2.397
	c-1.228,1.358-1.845,3.071-1.845,5.136c0,1.977,0.594,3.456,1.782,4.435c0.415,0.338,0.916,0.631,1.504,0.881
	c0.37,0.162,1.276,0.454,2.715,0.881c1.188,0.34,2.032,0.676,2.534,1.004c0.677,0.439,1.016,0.99,1.016,1.65
	c0,0.724-0.307,1.286-0.916,1.681c-0.526,0.353-1.164,0.527-1.915,0.527c-1.668,0-3.375-0.788-5.12-2.367l-2.482,4.67
	c2.384,1.688,4.968,2.531,7.753,2.531c1.326,0,2.568-0.204,3.723-0.605c3.309-1.144,4.962-3.602,4.962-7.37
	C157.33,39.409,156.953,38.205,156.203,37.267"/>
<path fill="#FFFFFF" d="M126.14,24.696c-6.801,0-12.313,5.515-12.313,12.314c0,6.802,5.513,12.315,12.313,12.315
	c6.804,0,12.317-5.514,12.317-12.315C138.457,30.211,132.944,24.696,126.14,24.696 M120.562,30.579c0.806,0,1.458,0.652,1.458,1.458
	c0,0.803-0.652,1.457-1.458,1.457c-0.804,0-1.455-0.654-1.455-1.457C119.107,31.23,119.758,30.579,120.562,30.579 M135.517,39.63
	c0.324,0.326,0.324,0.852,0,1.179c-2.585,2.584-5.981,3.877-9.377,3.877c-3.395,0-6.789-1.293-9.374-3.877
	c-0.325-0.326-0.325-0.852,0-1.179c0.327-0.324,0.854-0.324,1.179,0c4.52,4.52,11.875,4.52,16.394,0
	C134.663,39.305,135.191,39.305,135.517,39.63 M133.643,35.923c-0.673,0-1.218-0.543-1.218-1.216c0-0.671,0.544-1.214,1.218-1.214
	c0.668,0,1.214,0.543,1.214,1.214C134.857,35.38,134.311,35.923,133.643,35.923"/>
<path fill="#FFFFFF" d="M75.122,18.036c3.449-1.031,7.537-0.527,9.979,2.514c-0.271,0.378-0.432,0.837-0.432,1.336
	c0,1.275,1.033,2.309,2.306,2.309s2.309-1.034,2.309-2.309s-1.035-2.307-2.309-2.307c-0.243,0-0.474,0.047-0.694,0.117
	c-2.831-3.62-7.581-4.241-11.574-3.048c-4.306,1.288-8.44,4.957-8.208,10.166L54.124,48.251h26.514L67.936,26.249
	C68.03,22.071,71.517,19.115,75.122,18.036 M63.939,36.152h1.772v1.772h-1.772V36.152z M69.162,35.036h1.774v1.775h-1.774V35.036z
	 M73.126,44.041H61.637V42.23h11.489V44.041z"/>
</svg>
