<?xml version="1.0" encoding="utf-8"?>
<!-- Generator: Adobe Illustrator 13.0.1, SVG Export Plug-In . SVG Version: 6.00 Build 14948)  -->
<!DOCTYPE svg PUBLIC "-//W3C//DTD SVG 1.1//EN" "http://www.w3.org/Graphics/SVG/1.1/DTD/svg11.dtd">
<svg version="1.1" id="圖層_2" xmlns="http://www.w3.org/2000/svg" xmlns:xlink="http://www.w3.org/1999/xlink" x="0px" y="0px"
	 width="197.422px" height="67.484px" viewBox="0 0 197.422 67.484" enable-background="new 0 0 197.422 67.484"
	 xml:space="preserve">
<rect x="28.831" y="5.146" fill="#248D41" width="140.701" height="53.608"/>
<path fill="#FAE592" d="M77.542,16.227L72.81,36.698l-5.179-16.981c0,0-0.089-3.335-5.892-3.335h-27.24l-0.979,4.953h6.699
	l-4.022,19.509h5.63L46.2,21.335l6.782-0.102c0,0,1.877-0.305,2.861-1.819l-4.558,21.329h5.542l1.248-5.561h7.858l2.055,5.561h8.932
	l5.715-24.516H77.542z M59.06,30.432l1.963-8.592l3.486,8.592H59.06z M164.99,23.344c-0.11-1.585-0.49-2.875-1.121-3.872
	c-0.64-0.996-1.433-1.704-2.374-2.129c-0.939-0.419-2.439-0.634-4.49-0.642l-8.116-0.027l-6,24.528l8.352,0.027
	c1.8,0.009,3.325-0.217,4.58-0.676c1.256-0.459,2.399-1.143,3.429-2.057c1.034-0.911,2.003-2.149,2.908-3.717
	c0.91-1.563,1.62-3.408,2.143-5.528C164.872,26.9,165.1,24.931,164.99,23.344 M159.808,29.047c-0.431,1.751-0.912,3.163-1.446,4.233
	c-0.529,1.074-1.063,1.855-1.599,2.35c-0.534,0.494-1.152,0.863-1.858,1.106c-0.71,0.246-1.786,0.363-3.221,0.36l-3.37-0.014
	l3.978-16.257l2.027,0.007c1.803,0.005,3.001,0.082,3.596,0.23c0.787,0.193,1.404,0.593,1.842,1.196
	c0.438,0.605,0.668,1.431,0.688,2.484C160.466,25.794,160.25,27.228,159.808,29.047 M136.057,16.844l-4.41-0.014l-5.947,24.314
	l15.512,0.054l1.009-4.135l-11.094-0.037L136.057,16.844z M125.915,19.471c-1.443-2.205-3.749-3.315-6.899-3.325
	c-2.174-0.008-4.14,0.448-5.893,1.369c-1.752,0.921-3.336,2.328-4.745,4.218c-1.411,1.888-2.475,4.294-3.188,7.218
	c-0.986,4.03-0.714,7.204,0.82,9.523c1.357,2.026,3.626,3.042,6.814,3.052c3.165,0.013,5.92-1,8.268-3.033
	c2.663-2.307,4.502-5.512,5.507-9.619C127.588,24.813,127.363,21.677,125.915,19.471 M122.077,28.759
	c-0.707,2.91-1.815,5.069-3.316,6.471c-1.502,1.402-3.136,2.101-4.899,2.091c-1.748-0.005-3.043-0.717-3.879-2.139
	c-0.833-1.421-0.908-3.547-0.214-6.382c0.705-2.891,1.802-5.025,3.289-6.397c1.475-1.373,3.133-2.058,4.955-2.049
	c1.825,0.004,3.131,0.696,3.929,2.062C122.731,23.788,122.78,25.9,122.077,28.759 M99.586,16.51L91.53,33.298l0.094-16.817
	l-6.67-0.021l-5.999,24.528l4.166,0.015l4.736-19.38l-0.371,19.394l4.281,0.013l9.138-19.364l-4.743,19.379l4.164,0.015l6.001-24.53
	L99.586,16.51z"/>
<path fill="#FFFFFF" d="M135.25,46.256v1.571h-8.309c0.089-0.595,0.359-1.157,0.811-1.688c0.449-0.532,1.337-1.239,2.665-2.117
	c1.067-0.711,1.724-1.191,1.965-1.445c0.326-0.349,0.489-0.694,0.489-1.035c0-0.378-0.142-0.668-0.426-0.871
	s-0.676-0.304-1.176-0.304c-0.495,0-0.89,0.106-1.182,0.319c-0.293,0.213-0.463,0.566-0.506,1.06l-2.362-0.168
	c0.141-0.932,0.581-1.601,1.324-2.006c0.743-0.404,1.669-0.607,2.783-0.607c1.222,0,2.18,0.234,2.877,0.705
	c0.696,0.47,1.046,1.054,1.046,1.752c0,0.397-0.1,0.775-0.3,1.135c-0.199,0.359-0.515,0.736-0.948,1.129
	c-0.287,0.261-0.804,0.636-1.552,1.126s-1.223,0.815-1.422,0.977c-0.2,0.16-0.362,0.316-0.485,0.47L135.25,46.256L135.25,46.256z"/>
<path fill="none" stroke="#057F41" stroke-width="1.819" d="M135.25,46.256v1.571h-8.309c0.089-0.595,0.359-1.157,0.811-1.688
	c0.449-0.532,1.337-1.239,2.665-2.117c1.067-0.711,1.724-1.191,1.965-1.445c0.326-0.349,0.489-0.694,0.489-1.035
	c0-0.378-0.142-0.668-0.426-0.871s-0.676-0.304-1.176-0.304c-0.495,0-0.89,0.106-1.182,0.319c-0.293,0.213-0.463,0.566-0.506,1.06
	l-2.362-0.168c0.141-0.932,0.581-1.601,1.324-2.006c0.743-0.404,1.669-0.607,2.783-0.607c1.222,0,2.18,0.234,2.877,0.705
	c0.696,0.47,1.046,1.054,1.046,1.752c0,0.397-0.1,0.775-0.3,1.135c-0.199,0.359-0.515,0.736-0.948,1.129
	c-0.287,0.261-0.804,0.636-1.552,1.126s-1.223,0.815-1.422,0.977c-0.2,0.16-0.362,0.316-0.485,0.47L135.25,46.256L135.25,46.256z"/>
<path fill="#FFFFFF" d="M140.168,38.963c1.196,0,2.133,0.306,2.808,0.916c0.805,0.723,1.206,1.921,1.206,3.595
	c0,1.67-0.403,2.872-1.213,3.602c-0.67,0.602-1.604,0.904-2.801,0.904c-1.205,0-2.173-0.332-2.909-0.991
	c-0.737-0.66-1.105-1.837-1.105-3.532c0-1.661,0.404-2.858,1.215-3.589C138.036,39.263,138.97,38.963,140.168,38.963
	 M140.168,40.366c-0.287,0-0.543,0.065-0.769,0.195c-0.225,0.131-0.399,0.365-0.523,0.701c-0.162,0.438-0.244,1.175-0.244,2.21
	c0,1.036,0.073,1.747,0.22,2.135c0.146,0.389,0.33,0.646,0.552,0.774c0.222,0.128,0.478,0.191,0.765,0.191s0.541-0.064,0.768-0.194
	c0.224-0.131,0.399-0.365,0.521-0.701c0.165-0.435,0.246-1.169,0.246-2.205c0-1.035-0.073-1.747-0.22-2.135
	c-0.146-0.387-0.33-0.646-0.553-0.776C140.709,40.431,140.455,40.366,140.168,40.366"/>
<path fill="none" stroke="#057F41" stroke-width="1.819" d="M140.168,38.963c1.196,0,2.133,0.306,2.808,0.916
	c0.805,0.723,1.206,1.921,1.206,3.595c0,1.67-0.403,2.872-1.213,3.602c-0.67,0.602-1.604,0.904-2.801,0.904
	c-1.205,0-2.173-0.332-2.909-0.991c-0.737-0.66-1.105-1.837-1.105-3.532c0-1.661,0.404-2.858,1.215-3.589
	C138.036,39.263,138.97,38.963,140.168,38.963z M140.168,40.366c-0.287,0-0.543,0.065-0.769,0.195
	c-0.225,0.131-0.399,0.365-0.523,0.701c-0.162,0.438-0.244,1.175-0.244,2.21c0,1.036,0.073,1.747,0.22,2.135
	c0.146,0.389,0.33,0.646,0.552,0.774c0.222,0.128,0.478,0.191,0.765,0.191s0.541-0.064,0.768-0.194
	c0.224-0.131,0.399-0.365,0.521-0.701c0.165-0.435,0.246-1.169,0.246-2.205c0-1.035-0.073-1.747-0.22-2.135
	c-0.146-0.387-0.33-0.646-0.553-0.776C140.709,40.431,140.455,40.366,140.168,40.366z"/>
<path fill="#FFFFFF" d="M151.143,47.827h-2.37V41.45c-0.866,0.578-1.887,1.006-3.063,1.283v-1.536
	c0.618-0.145,1.29-0.418,2.017-0.821c0.725-0.404,1.223-0.875,1.492-1.413h1.924V47.827z"/>
<path fill="none" stroke="#057F41" stroke-width="1.819" d="M151.143,47.827h-2.37V41.45c-0.866,0.578-1.887,1.006-3.063,1.283
	v-1.536c0.618-0.145,1.29-0.418,2.017-0.821c0.725-0.404,1.223-0.875,1.492-1.413h1.924V47.827z"/>
<path fill="#FFFFFF" d="M162.023,41.161l-2.294,0.181c-0.056-0.337-0.202-0.586-0.438-0.745c-0.237-0.161-0.542-0.242-0.919-0.242
	c-0.501,0-0.923,0.16-1.271,0.481c-0.346,0.322-0.563,0.99-0.652,2.006c0.59-0.498,1.324-0.746,2.2-0.746
	c0.991,0,1.839,0.269,2.544,0.807c0.706,0.538,1.059,1.233,1.059,2.084c0,0.903-0.37,1.628-1.113,2.174
	c-0.742,0.545-1.695,0.819-2.859,0.819c-1.247,0-2.274-0.347-3.078-1.039c-0.805-0.692-1.207-1.828-1.207-3.405
	c0-1.618,0.42-2.785,1.258-3.499c0.837-0.715,1.925-1.071,3.264-1.071c0.939,0,1.716,0.188,2.332,0.563
	C161.462,39.901,161.855,40.445,162.023,41.161 M156.651,44.852c0,0.55,0.176,0.975,0.53,1.273s0.76,0.448,1.214,0.448
	c0.439,0,0.805-0.122,1.098-0.367c0.292-0.245,0.438-0.646,0.438-1.203c0-0.574-0.158-0.995-0.472-1.263
	c-0.315-0.267-0.71-0.4-1.182-0.4c-0.455,0-0.84,0.128-1.154,0.382C156.81,43.978,156.651,44.354,156.651,44.852"/>
<path fill="none" stroke="#057F41" stroke-width="1.819" d="M162.023,41.161l-2.294,0.181c-0.056-0.337-0.202-0.586-0.438-0.745
	c-0.237-0.161-0.542-0.242-0.919-0.242c-0.501,0-0.923,0.16-1.271,0.481c-0.346,0.322-0.563,0.99-0.652,2.006
	c0.59-0.498,1.324-0.746,2.2-0.746c0.991,0,1.839,0.269,2.544,0.807c0.706,0.538,1.059,1.233,1.059,2.084
	c0,0.903-0.37,1.628-1.113,2.174c-0.742,0.545-1.695,0.819-2.859,0.819c-1.247,0-2.274-0.347-3.078-1.039
	c-0.805-0.692-1.207-1.828-1.207-3.405c0-1.618,0.42-2.785,1.258-3.499c0.837-0.715,1.925-1.071,3.264-1.071
	c0.939,0,1.716,0.188,2.332,0.563C161.462,39.901,161.855,40.445,162.023,41.161z M156.651,44.852c0,0.55,0.176,0.975,0.53,1.273
	s0.76,0.448,1.214,0.448c0.439,0,0.805-0.122,1.098-0.367c0.292-0.245,0.438-0.646,0.438-1.203c0-0.574-0.158-0.995-0.472-1.263
	c-0.315-0.267-0.71-0.4-1.182-0.4c-0.455,0-0.84,0.128-1.154,0.382C156.81,43.978,156.651,44.354,156.651,44.852z"/>
<line fill="none" x1="28.772" y1="45.772" x2="127.166" y2="45.772"/>
<line fill="none" stroke="#FAE592" stroke-width="3.82" x1="28.772" y1="45.772" x2="127.166" y2="45.772"/>
</svg>
