<?xml version="1.0" encoding="utf-8"?>
<!-- Generator: Adobe Illustrator 13.0.1, SVG Export Plug-In . SVG Version: 6.00 Build 14948)  -->
<!DOCTYPE svg PUBLIC "-//W3C//DTD SVG 1.1//EN" "http://www.w3.org/Graphics/SVG/1.1/DTD/svg11.dtd">
<svg version="1.1" id="圖層_1" xmlns="http://www.w3.org/2000/svg" xmlns:xlink="http://www.w3.org/1999/xlink" x="0px" y="0px"
	 width="30px" height="450px" viewBox="-0.5 -60.5 30 450" enable-background="new -0.5 -60.5 30 450" xml:space="preserve">
<g>
	<path fill="#FFFFFF" d="M10.471,80.595C10.501,80.565,10.493,80.57,10.471,80.595L10.471,80.595z"/>
	<path fill="#FFFFFF" d="M19.467,69.564c-0.098,0-0.195,0-0.296,0c-0.142,0-0.149,0.027-0.149-0.115
		c0-0.258-0.062-0.378-0.332-0.431c-0.907-0.173-1.819-0.331-2.733-0.474c-1.078-0.169-2.18-0.355-3.276-0.367
		c-0.485-0.008-1.024,0.061-1.489,0.215c-0.499,0.166-0.844,0.59-1.188,0.97c-0.23-0.256-0.458-0.528-0.736-0.735
		c-0.291-0.217-0.64-0.298-0.991-0.356c-0.73-0.122-1.431-0.086-2.168-0.006c-1.367,0.148-2.723,0.378-4.076,0.622
		c-0.264,0.048-0.529,0.104-0.795,0.148c-0.231,0.044-0.288,0.159-0.288,0.367c0,0.019,0.009,0.163-0.009,0.163
		c-0.099,0-0.197,0-0.297,0c-0.57,0-0.638,0.448-0.638,0.891c0,2.962,0,4.847,0,7.809c0,1.212,0,2.426,0,3.639
		c0,0.378,0.024,0.892,0.54,0.892c0.438,0,0.873,0,1.307,0c1.658,0,3.318,0,4.979,0c0.236,0,0.478,0,0.718,0
		c0.052,0,0.103,0,0.158,0c0.225,0,0.225,0.096,0.266,0.271c0.089,0.386,0.405,0.444,0.734,0.444c0.37,0,0.741,0,1.112,0
		c0.411,0,0.822,0,1.235,0c0.217,0,0.521,0.047,0.717-0.068c0.116-0.069,0.199-0.181,0.245-0.308
		c0.037-0.108,0.011-0.211,0.094-0.295c0.053-0.052,0.1-0.045,0.162-0.045c0.189,0,0.38,0,0.572,0c1.616,0,3.233,0,4.854,0
		c0.554,0,1.107,0,1.656,0c0.446,0,0.648-0.312,0.648-0.728c0-1.087,0-2.177,0-3.266c0-3.066,0-5.058,0-8.124
		C20.001,70.268,20.075,69.564,19.467,69.564z M8.269,81.961c-2.327-0.015-4.653-0.031-6.979-0.045
		c0.019-0.089,0.108-0.727,0.169-0.741c0.177-0.043,0.358-0.084,0.54-0.125c0.964-0.214,1.938-0.405,2.917-0.552
		c1.017-0.154,2.19-0.374,3.198-0.046c0.529,0.172,1.074,0.533,1.326,1.047C9.017,81.499,8.596,81.712,8.269,81.961z M9.632,70.248
		c0,0.585,0,0.361,0,0.947c0,3.067,0,5.868,0,8.936c0,0.165,0,0.33,0,0.494c-0.439-0.442-1.059-0.856-1.67-1.003
		c-0.74-0.18-1.543-0.119-2.293-0.047c-1.418,0.137-2.829,0.416-4.212,0.752c0-2.598,0-5.196,0-7.793c0-1.309,0-1.543,0-2.854
		c0-0.061-0.029-0.141,0.035-0.154c0.097-0.018,0.193-0.035,0.291-0.052c0.319-0.058,0.645-0.114,0.964-0.17
		c0.82-0.14,1.642-0.27,2.467-0.38c0.749-0.101,1.515-0.209,2.27-0.196c0.668,0.013,1.364,0.136,1.849,0.618
		c0.153,0.155,0.3,0.229,0.3,0.435C9.632,69.936,9.632,70.092,9.632,70.248z M10.372,80.698c0-2.569,0-5.137,0-7.706
		c0-1.092,0-1.104,0-2.197c0-0.305,0-0.612,0-0.918c0-0.067,0-0.133,0-0.199c0-0.151,0.456-0.487,0.575-0.573c0,1.878,0,2.68,0,4.56
		c0.171-0.101,0.343-0.203,0.514-0.303c0.115-0.066,0.388-0.303,0.52-0.303s0.403,0.236,0.515,0.303
		c0.175,0.101,0.348,0.202,0.52,0.303c0-2,0-2.925,0-4.924c1.567,0.085,3.13,0.369,4.675,0.639c0.285,0.05,0.572,0.1,0.858,0.155
		c0.021,0.032,0,0.119,0,0.167c0,0.104,0,0.208,0,0.313c0,1.302,0,1.529,0,2.832c0,2.495,0,4.99,0,7.486
		c-1.387-0.314-2.795-0.578-4.214-0.721c-0.714-0.072-1.47-0.139-2.184-0.01C11.478,79.721,10.836,80.209,10.372,80.698z
		 M11.735,81.961c-0.326-0.249-0.748-0.462-1.17-0.462c0.244-0.496,0.758-0.849,1.265-1.026c1.019-0.359,2.224-0.133,3.262,0.025
		c0.963,0.146,1.922,0.334,2.873,0.543c0.193,0.043,0.389,0.086,0.582,0.132c0.063,0.015,0.146,0.648,0.17,0.742
		C16.389,81.93,14.063,81.946,11.735,81.961z"/>
	<path fill="#FFFFFF" d="M10.419,80.65c0.018-0.019,0.038-0.041,0.052-0.055C10.461,80.606,10.443,80.625,10.419,80.65z"/>
	<path fill="#FFFFFF" d="M10.4,80.67c0.004-0.007,0.011-0.012,0.019-0.02C10.41,80.659,10.404,80.665,10.4,80.67z"/>
	<path fill="#FFFFFF" d="M10.372,80.698c0,0,0.013-0.011,0.028-0.028C10.388,80.68,10.385,80.687,10.372,80.698z"/>
</g>
<polygon fill="#FFFFFF" points="18.982,-45.499 19.004,-45.526 18.967,-45.526 10.434,-54.151 5.523,-54.151 12.629,-47.524 
	0.004,-47.524 0.004,-43.476 12.629,-43.476 5.523,-36.849 10.434,-36.849 18.967,-45.471 19.004,-45.471 "/>
<polygon fill="#00FFFF" points="18.982,14.501 19.004,14.474 18.967,14.474 10.434,5.849 5.523,5.849 12.629,12.476 0.004,12.476 
	0.004,16.524 12.629,16.524 5.523,23.151 10.434,23.151 18.967,14.529 19.004,14.529 "/>
<g>
	<path fill="none" stroke="#FFFFFF" stroke-width="0.9153" d="M21.162,144.382c0,1.05-0.823,1.902-1.842,1.902H7.445
		c-1.018,0-1.843-0.853-1.843-1.902v-11.757c0-1.05,0.825-1.902,1.843-1.902H19.32c1.019,0,1.842,0.854,1.842,1.902V144.382z"/>
	<polygon fill="#FFF5AB" points="7.565,133.327 14.052,143.361 25.604,123.574 14.052,136.832 	"/>
</g>
<g>
	<g>
		<path fill="#FFFFFF" d="M16.02,186.975v1.303H3.99v-1.303H0.004v15.053H3.99v-1.557H16.02v1.557h3.983v-15.053H16.02z
			 M3.018,199.907c0,0.247-0.205,0.454-0.455,0.454h-1.15c-0.252,0-0.457-0.203-0.457-0.454v-0.908c0-0.252,0.207-0.456,0.457-0.456
			h1.15c0.253,0,0.455,0.204,0.455,0.456V199.907z M2.563,196.93h-1.15c-0.25,0-0.453-0.199-0.453-0.451H0.955v-0.905
			c0-0.253,0.207-0.458,0.457-0.458h1.15c0.253,0,0.455,0.205,0.455,0.458c0.001,0.299,0.001,0.601,0.001,0.905
			C3.018,196.729,2.816,196.93,2.563,196.93z M2.563,193.503h-1.15c-0.25,0-0.453-0.204-0.453-0.452H0.955v-0.91
			c0-0.25,0.207-0.453,0.457-0.453h1.15c0.253,0,0.455,0.203,0.455,0.453c0.001,0.305,0.001,0.605,0.001,0.91
			C3.018,193.299,2.816,193.503,2.563,193.503z M3.018,189.623c0,0.248-0.205,0.451-0.455,0.451h-1.15
			c-0.252,0-0.457-0.203-0.457-0.451v-0.909c0-0.25,0.207-0.455,0.457-0.455h1.15c0.253,0,0.455,0.205,0.455,0.455V189.623z
			 M15.586,199.271H4.332v-9.793h11.254V199.271z M19.033,199.907c0,0.247-0.204,0.454-0.457,0.454h-1.151
			c-0.249,0-0.45-0.203-0.45-0.454h-0.002v-0.908c0-0.252,0.205-0.456,0.452-0.456h1.151c0.253,0,0.457,0.204,0.457,0.456V199.907z
			 M19.033,196.479c0,0.25-0.204,0.451-0.457,0.451h-1.151c-0.247,0-0.45-0.199-0.45-0.451c0,0,0,0-0.002,0v-0.905
			c0-0.253,0.205-0.458,0.452-0.458h1.151c0.253,0,0.457,0.205,0.457,0.458V196.479z M19.033,193.051
			c0,0.248-0.204,0.452-0.457,0.452h-1.151c-0.247,0-0.45-0.204-0.45-0.452c0,0,0,0-0.002,0v-0.91c0-0.25,0.205-0.453,0.452-0.453
			h1.151c0.253,0,0.457,0.203,0.457,0.453V193.051z M19.033,189.623c0,0.248-0.204,0.451-0.457,0.451h-1.151
			c-0.249,0-0.45-0.203-0.45-0.451h-0.002v-0.909c0-0.25,0.205-0.455,0.452-0.455h1.151c0.253,0,0.457,0.205,0.457,0.455V189.623z
			 M7.122,190.925v6.899l7.002-3.449L7.122,190.925z"/>
	</g>
</g>
<g>
	<g>
		<path fill="#00FFFF" d="M16.02,246.975v1.303H3.99v-1.303H0.004v15.053H3.99v-1.557H16.02v1.557h3.983v-15.053H16.02z
			 M3.018,259.907c0,0.247-0.205,0.454-0.455,0.454h-1.15c-0.252,0-0.457-0.203-0.457-0.454v-0.908c0-0.252,0.207-0.456,0.457-0.456
			h1.15c0.253,0,0.455,0.204,0.455,0.456V259.907z M2.563,256.93h-1.15c-0.25,0-0.453-0.199-0.453-0.451H0.955v-0.905
			c0-0.253,0.207-0.458,0.457-0.458h1.15c0.253,0,0.455,0.205,0.455,0.458c0.001,0.299,0.001,0.601,0.001,0.905
			C3.018,256.729,2.816,256.93,2.563,256.93z M2.563,253.503h-1.15c-0.25,0-0.453-0.204-0.453-0.452H0.955v-0.91
			c0-0.25,0.207-0.453,0.457-0.453h1.15c0.253,0,0.455,0.203,0.455,0.453c0.001,0.305,0.001,0.605,0.001,0.91
			C3.018,253.299,2.816,253.503,2.563,253.503z M3.018,249.623c0,0.248-0.205,0.451-0.455,0.451h-1.15
			c-0.252,0-0.457-0.203-0.457-0.451v-0.909c0-0.25,0.207-0.455,0.457-0.455h1.15c0.253,0,0.455,0.205,0.455,0.455V249.623z
			 M15.586,259.271H4.332v-9.793h11.254V259.271z M19.033,259.907c0,0.247-0.204,0.454-0.457,0.454h-1.151
			c-0.249,0-0.45-0.203-0.45-0.454h-0.002v-0.908c0-0.252,0.205-0.456,0.452-0.456h1.151c0.253,0,0.457,0.204,0.457,0.456V259.907z
			 M19.033,256.479c0,0.25-0.204,0.451-0.457,0.451h-1.151c-0.247,0-0.45-0.199-0.45-0.451c0,0,0,0-0.002,0v-0.905
			c0-0.253,0.205-0.458,0.452-0.458h1.151c0.253,0,0.457,0.205,0.457,0.458V256.479z M19.033,253.051
			c0,0.248-0.204,0.452-0.457,0.452h-1.151c-0.247,0-0.45-0.204-0.45-0.452c0,0,0,0-0.002,0v-0.91c0-0.25,0.205-0.453,0.452-0.453
			h1.151c0.253,0,0.457,0.203,0.457,0.453V253.051z M19.033,249.623c0,0.248-0.204,0.451-0.457,0.451h-1.151
			c-0.249,0-0.45-0.203-0.45-0.451h-0.002v-0.909c0-0.25,0.205-0.455,0.452-0.455h1.151c0.253,0,0.457,0.205,0.457,0.455V249.623z
			 M7.122,250.925v6.899l7.002-3.449L7.122,250.925z"/>
	</g>
</g>
<path fill-rule="evenodd" clip-rule="evenodd" fill="#FFFFFF" d="M17.732,314.963c0.475-0.48,0.768-1.156,0.768-1.91
	c0-0.746-0.293-1.424-0.768-1.904C17.713,312.414,17.713,313.695,17.732,314.963L17.732,314.963z M1.512,311.313
	c-0.466-0.215-0.714-0.291-1.01-0.43c-0.128-0.064-0.271,0.006-0.326,0.16c-0.068,0.18-0.125,0.432-0.17,0.732
	c0.511,0.15,1.113,0.23,1.911,0.451l0.008-0.076C1.964,311.783,1.796,311.441,1.512,311.313L1.512,311.313z M3.679,312.434
	c-0.015-0.232-0.035-0.408-0.033-0.533c0.008-0.266,0.042-0.328,0.492-0.426c5.093-1.115,7.551-1.967,12.345-4.484
	c0.065-0.033,0.313,0.02,0.304,0.105c-0.09,0.807-0.07,0.385-0.123,1.283C10.731,311.328,9.999,311.037,3.679,312.434L3.679,312.434
	z M1.793,310.848c0.338,0.145,0.537,0.535,0.491,0.951c-0.08,0.711-0.078,1.836-0.012,2.533c0.04,0.414-0.161,0.793-0.492,0.939
	c-0.559,0.24-1.186,0.471-1.54,0.631c-0.143,0.064-0.306-0.002-0.379-0.16c-0.547-1.184-0.411-4.324-0.013-5.352
	c0.068-0.174,0.238-0.254,0.389-0.186C0.595,310.371,1.231,310.604,1.793,310.848L1.793,310.848z M17.492,320.008
	c-0.467-4.15-0.467-9.752,0-13.906c0.01-0.088-0.251-0.145-0.321-0.109c-3.684,1.934-5.806,2.898-8.461,3.689
	c-1.529,0.459-3.24,0.857-5.529,1.354c-0.366,0.078-0.366,3.959,0,4.039c6.257,1.355,8.183,1.996,13.991,5.043
	C17.241,320.156,17.502,320.096,17.492,320.008L17.492,320.008z M6.651,317.078c-0.366,3.107-0.156,3.766,0.226,5.645
	c0.022,0.117-0.027,0.279-0.128,0.287c-3.109,0.256-3.493-4.738-3.48-6.713c0.002-0.115,0.042-0.219,0.12-0.291
	c0.075-0.076,0.166-0.104,0.266-0.084c0.965,0.203,2.061,0.412,2.781,0.645c0.093,0.031,0.163,0.098,0.206,0.199
	C6.684,316.865,6.664,316.969,6.651,317.078z"/>
<path fill-rule="evenodd" clip-rule="evenodd" fill="#00FFFF" d="M17.732,374.963c0.475-0.48,0.768-1.156,0.768-1.91
	c0-0.746-0.293-1.424-0.768-1.904C17.713,372.414,17.713,373.695,17.732,374.963L17.732,374.963z M1.512,371.313
	c-0.466-0.215-0.714-0.291-1.01-0.43c-0.128-0.064-0.271,0.006-0.326,0.16c-0.068,0.18-0.125,0.432-0.17,0.732
	c0.511,0.15,1.113,0.23,1.911,0.451l0.008-0.076C1.964,371.783,1.796,371.441,1.512,371.313L1.512,371.313z M3.679,372.434
	c-0.015-0.232-0.035-0.408-0.033-0.533c0.008-0.266,0.042-0.328,0.492-0.426c5.093-1.115,7.551-1.967,12.345-4.484
	c0.065-0.033,0.313,0.02,0.304,0.105c-0.09,0.807-0.07,0.385-0.123,1.283C10.731,371.328,9.999,371.037,3.679,372.434L3.679,372.434
	z M1.793,370.848c0.338,0.145,0.537,0.535,0.491,0.951c-0.08,0.711-0.078,1.836-0.012,2.533c0.04,0.414-0.161,0.793-0.492,0.939
	c-0.559,0.24-1.186,0.471-1.54,0.631c-0.143,0.064-0.306-0.002-0.379-0.16c-0.547-1.184-0.411-4.324-0.013-5.352
	c0.068-0.174,0.238-0.254,0.389-0.186C0.595,370.371,1.231,370.604,1.793,370.848L1.793,370.848z M17.492,380.008
	c-0.467-4.15-0.467-9.752,0-13.906c0.01-0.088-0.251-0.145-0.321-0.109c-3.684,1.934-5.806,2.898-8.461,3.689
	c-1.529,0.459-3.24,0.857-5.529,1.354c-0.366,0.078-0.366,3.959,0,4.039c6.257,1.355,8.183,1.996,13.991,5.043
	C17.241,380.156,17.502,380.096,17.492,380.008L17.492,380.008z M6.651,377.078c-0.366,3.107-0.156,3.766,0.226,5.645
	c0.022,0.117-0.027,0.279-0.128,0.287c-3.109,0.256-3.493-4.738-3.48-6.713c0.002-0.115,0.042-0.219,0.12-0.291
	c0.075-0.076,0.166-0.104,0.266-0.084c0.965,0.203,2.061,0.412,2.781,0.645c0.093,0.031,0.163,0.098,0.206,0.199
	C6.684,376.865,6.664,376.969,6.651,377.078z"/>
</svg>
